<?xml version="1.0" encoding="UTF-8" standalone="no"?>
<!-- Created with Inkscape (http://www.inkscape.org/) -->

<svg
   xmlns:dc="http://purl.org/dc/elements/1.1/"
   xmlns:cc="http://creativecommons.org/ns#"
   xmlns:rdf="http://www.w3.org/1999/02/22-rdf-syntax-ns#"
   xmlns:svg="http://www.w3.org/2000/svg"
   xmlns="http://www.w3.org/2000/svg"
   xmlns:sodipodi="http://sodipodi.sourceforge.net/DTD/sodipodi-0.dtd"
   xmlns:inkscape="http://www.inkscape.org/namespaces/inkscape"
   version="1.1"
   id="svg45"
   width="144"
   height="144"
   viewBox="0 0 144 144"
   sodipodi:docname="coruja2.png.svg"
   inkscape:version="0.92.5 (2060ec1f9f, 2020-04-08)">
  <metadata
     id="metadata51">
    <rdf:RDF>
      <cc:Work
         rdf:about="">
        <dc:format>image/svg+xml</dc:format>
        <dc:type
           rdf:resource="http://purl.org/dc/dcmitype/StillImage" />
        <dc:title></dc:title>
      </cc:Work>
    </rdf:RDF>
  </metadata>
  <defs
     id="defs49" />
  <sodipodi:namedview
     pagecolor="#ffffff"
     bordercolor="#666666"
     borderopacity="1"
     objecttolerance="10"
     gridtolerance="10"
     guidetolerance="10"
     inkscape:pageopacity="0"
     inkscape:pageshadow="2"
     inkscape:window-width="1279"
     inkscape:window-height="1027"
     id="namedview47"
     showgrid="false"
     inkscape:zoom="29.777052"
     inkscape:cx="74.558624"
     inkscape:cy="106.28343"
     inkscape:window-x="1280"
     inkscape:window-y="0"
     inkscape:window-maximized="0"
     inkscape:current-layer="svg45" />
  <path
     style="fill:#000000;stroke-width:0.31999999"
     d="M 64.107683,130.60764 56.48,122.65527 54.800026,117.56764 53.120051,112.48 44.372544,99.04 35.625034,85.6 35.406,76.276154 35.186963,66.95231 38.89073,59.177475 c 3.038819,-6.378998 3.958089,-8.669145 5.120348,-12.756157 l 1.41658,-4.981318 -1.822336,-3.555245 -1.822336,-3.555248 3.32184,-4.898186 c 1.827014,-2.694004 3.319507,-5.054143 3.316656,-5.244755 -0.0029,-0.190611 -1.98329,-4.450566 -4.40097,-9.466566 -2.41768,-5.016 -4.47464,-9.3101318 -4.571024,-9.5425152 -0.09638,-0.232383 4.029722,1.6809325 9.169117,4.2518128 l 9.344358,4.6743274 1.531155,-1.281957 c 0.842138,-0.705076 1.714103,-1.502392 1.937703,-1.771812 0.611398,-0.736691 20.52496,-0.736691 21.136358,0 0.2236,0.26942 1.095565,1.066736 1.937703,1.771812 l 1.531155,1.281957 9.344353,-4.6743274 c 5.1394,-2.5708803 9.2655,-4.4841958 9.16912,-4.2518128 C 104.45411,5.4098682 102.39717,9.704 99.97949,14.72 c -2.41768,5.016 -4.39812,9.275955 -4.40097,9.466566 -0.003,0.190612 1.48964,2.550751 3.31665,5.244755 l 3.32184,4.898186 -1.82233,3.555248 -1.82234,3.555245 1.41658,4.981318 c 1.16226,4.087012 2.08153,6.377159 5.12035,12.756157 l 3.70377,7.774835 -0.21904,9.323844 -0.21903,9.323846 -8.74751,13.44 -8.747511,13.44 -1.679975,5.08764 -1.679974,5.08763 -7.627683,7.95237 C 75.697091,134.98144 72.145549,138.56 72,138.56 c -0.145549,0 -3.697091,-3.57856 -7.892317,-7.95236 z m 6.220055,-13.0575 -0.08774,-5.32986 -5.28,4.8699 c -2.904,2.67843 -5.268934,4.95665 -5.255414,5.0627 0.01354,0.10605 2.389523,2.67279 5.28,5.70387 l 5.255414,5.51105 0.08774,-5.2439 c 0.04826,-2.88415 0.04826,-7.64234 0,-10.57376 z m 12.950224,5.79889 1.151782,-1.29097 -4.831997,-4.46903 c -2.6576,-2.45797 -5.094291,-4.6572 -5.414873,-4.88717 C 73.622358,112.29975 73.6,112.69026 73.6,122.88274 v 10.59903 l 4.263091,-4.42089 c 2.344701,-2.43148 4.781392,-5.00182 5.414871,-5.71185 z M 64.8,113.74117 c 2.64,-2.44874 4.783712,-4.59826 4.763808,-4.77671 -0.06154,-0.55172 -3.378477,-11.499759 -3.615293,-11.932815 -0.138285,-0.252874 -2.113837,2.617289 -5.18855,7.538135 l -4.965245,7.9465 1.062986,3.18186 c 0.58464,1.75002 1.139084,3.38472 1.232092,3.63267 0.130762,0.34858 0.366522,0.27074 1.039658,-0.34328 0.4788,-0.43676 3.030544,-2.79762 5.670544,-5.24636 z m 22.261459,2.17276 1.141456,-3.40143 -4.964061,-7.94461 c -3.073993,-4.919695 -5.049084,-7.789122 -5.187369,-7.536245 -0.242887,0.444163 -3.556173,11.393545 -3.615293,11.947435 -0.04513,0.42281 11.062198,10.74757 11.30616,10.50958 0.09771,-0.0953 0.691306,-1.70394 1.319107,-3.57473 z M 53.65583,92.269162 c -0.230812,-0.23081 -12.825715,-3.90752 -12.960246,-3.78336 -0.0971,0.08961 4.08937,6.615398 10.055424,15.674198 L 53.28,108 l 0.274982,-7.77835 c 0.151242,-4.278095 0.196621,-7.856712 0.100848,-7.952488 z m 43.77186,5.544304 c 3.29225,-5.074596 5.93785,-9.27097 5.87911,-9.325284 -0.13451,-0.124361 -12.727677,3.546029 -12.958528,3.77688 -0.09352,0.09352 -0.06428,3.647133 0.06498,7.896928 0.18768,6.17079 0.314912,7.64141 0.631767,7.30245 0.218214,-0.23344 3.090421,-4.57638 6.382671,-9.650974 z m -37.31394,2.986764 c 1.932356,-3.079875 3.471626,-5.641523 3.420599,-5.692547 -0.200304,-0.200307 -6.953895,-2.034803 -7.068627,-1.92007 -0.06721,0.06721 -0.208548,3.283497 -0.314071,7.147297 -0.129245,4.73221 -0.08732,6.86842 0.128432,6.54509 0.176163,-0.264 1.901312,-2.9999 3.833667,-6.07977 z m 27.764532,-0.54532 c -0.121988,-3.8198 -0.276791,-7.000084 -0.344004,-7.067297 -0.11478,-0.114781 -6.869936,1.720237 -7.067414,1.919843 -0.110646,0.111837 7.318013,12.078594 7.503174,12.086784 0.07152,0.003 0.03024,-3.11953 -0.09176,-6.93933 z M 70.636931,68.493427 70.56,61.306851 63.700701,59.299392 c -3.772615,-1.104106 -6.889379,-1.974147 -6.926147,-1.933427 -0.03677,0.04072 2.977916,10.162691 6.699299,22.49327 L 70.24,102.27847 70.476931,88.979235 c 0.130311,-7.314579 0.202311,-16.533193 0.16,-20.485808 z M 87.225862,57.365965 c -0.037,-0.04072 -3.153948,0.828691 -6.926563,1.932022 L 73.44,61.304045 73.330259,62.892022 c -0.06036,0.873389 -0.0068,10.149584 0.119152,20.61377 l 0.22889,19.025788 6.807414,-22.545788 c 3.74408,-12.400186 6.777146,-22.579107 6.740147,-22.619827 z M 63.182861,87.614611 61.690614,82.677664 52.863523,77.898832 C 48.008624,75.270474 42.62281,72.359734 40.895046,71.430525 l -3.141388,-1.689479 0.203993,7.449479 c 0.112195,4.097209 0.300039,7.556691 0.417431,7.687734 0.22862,0.25521 26.038825,7.895312 26.20247,7.756218 0.05365,-0.0456 -0.573955,-2.304544 -1.394691,-5.019866 z m 29.604429,1.190237 c 6.94501,-2.030285 12.72264,-3.797949 12.83918,-3.928138 0.11654,-0.130192 0.30368,-3.588976 0.41588,-7.686185 l 0.20399,-7.449479 -3.14139,1.689479 c -1.72776,0.929209 -7.11357,3.839949 -11.968473,6.468307 l -8.827091,4.778832 -1.474692,4.878877 C 80.023613,90.23992 79.36,92.512925 79.36,92.607664 c 0,0.09474 0.18,0.108432 0.4,0.03043 0.22,-0.078 6.082282,-1.80296 13.02729,-3.833246 z M 60.36016,78.32 C 59.858035,76.40936 53.803014,56.576349 53.686141,56.459475 53.520579,56.293914 44.971414,53.76 44.578384,53.76 c -0.429699,0 -6.694499,13.21167 -6.332666,13.354784 0.172855,0.06837 5.138282,2.765626 11.034282,5.993907 5.896,3.228282 10.84361,5.883488 10.994691,5.900458 C 60.42577,79.026109 60.464234,78.716 60.36016,78.32 Z m 34.39107,-5.237709 c 6.05482,-3.276739 11.06706,-6.011033 11.13831,-6.076205 C 106.1026,66.811187 99.72984,53.76 99.42162,53.76 c -0.39303,0 -8.942199,2.533914 -9.107761,2.699475 C 90.196986,56.576349 84.141965,76.40936 83.63984,78.32 c -0.104074,0.396 -0.123555,0.72 -0.0433,0.72 0.08026,0 5.099866,-2.68097 11.15469,-5.957709 z M 84.282301,55.50449 c 6.356736,-1.856532 11.823419,-3.454589 12.148189,-3.551242 0.45474,-0.135331 10e-4,-0.570182 -1.97237,-1.891581 L 91.895251,48.345818 85.447952,50.572909 79.00065,52.8 H 72 64.99935 l -6.447302,-2.227091 -6.447299,-2.227091 -2.574259,1.723478 -2.574256,1.723478 1.241881,0.34041 c 0.683037,0.187222 6.065885,1.768918 11.961885,3.514877 5.896,1.745961 11.135037,3.187401 11.642301,3.203206 0.507267,0.01581 6.123267,-1.490246 12.48,-3.346777 z M 70.72,48.876582 c 0,-1.07824 -0.292054,-1.798764 -1.39631,-3.444825 -1.325812,-1.97632 -1.408141,-2.23465 -1.630679,-5.116583 L 67.45864,37.28 58.973152,31.559636 c -4.712557,-3.176899 -8.576118,-5.57898 -8.689318,-5.402385 -0.112109,0.174889 -1.401354,2.120975 -2.864989,4.324635 l -2.661159,4.006655 1.464631,2.916246 c 1.014067,2.01913 2.231133,3.768368 3.956288,5.686208 l 2.491661,2.769962 6.224867,2.172006 C 64.701507,50.058954 65.30824,50.20615 67.92,50.222486 L 70.72,50.24 Z M 84.856134,48.129117 91.04,46.01823 93.51376,43.409117 c 1.8198,-1.919367 2.90566,-3.440845 4.10749,-5.755283 l 1.63373,-3.146167 -2.66749,-4.016217 c -1.46712,-2.20892 -2.75921,-4.15931 -2.87132,-4.334199 -0.1132,-0.176595 -3.976765,2.225486 -8.689322,5.402385 L 76.54136,37.28 76.306989,40.315174 C 76.084451,43.197107 76.002122,43.455437 74.67631,45.431757 73.572054,47.077818 73.28,47.798342 73.28,48.876582 V 50.24 h 2.696134 c 2.484064,0 3.182528,-0.166032 8.88,-2.110883 z M 48.02136,47.985494 49.927603,46.690989 48.73633,45.265843 C 47.935645,44.307965 47.473939,43.971731 47.32816,44.240349 46.987507,44.868048 45.791693,49.28 45.962214,49.28 c 0.0841,0 1.010711,-0.582528 2.059146,-1.294506 z M 97.53971,46.96 c -0.93458,-3.33072 -0.91822,-3.318538 -2.27538,-1.694944 l -1.19062,1.424358 1.84315,1.279079 c 1.01373,0.703491 1.94005,1.286374 2.05848,1.295293 C 98.09378,49.272686 97.89774,48.236 97.53971,46.96 Z M 73.04,43.725872 C 74.125699,42.007283 74.310032,39.36 73.344,39.36 c -0.3168,0 -0.7488,0.1728 -0.96,0.384 -0.298666,0.298666 -0.469334,0.298666 -0.768,0 -0.2112,-0.2112 -0.6432,-0.384 -0.96,-0.384 -0.966032,0 -0.781699,2.647283 0.304,4.365872 0.484,0.766141 0.952,1.392982 1.04,1.392982 0.088,0 0.556,-0.626841 1.04,-1.392982 z m 9.458864,-13.485191 c 5.575379,-3.783626 10.238256,-6.915626 10.361946,-6.96 C 93.09405,23.197001 99.25316,10.56 99.0607,10.56 c -0.0598,0 -2.75297,1.285551 -5.98475,2.85678 L 87.2,16.27356 80.32,22.850787 c -3.784,3.617475 -7.204,6.667535 -7.6,6.777911 -0.396,0.110376 -1.044,0.110376 -1.44,0 -0.396,-0.110376 -3.816,-3.160436 -7.6,-6.777911 L 56.8,16.27356 50.924045,13.41678 C 47.692272,11.845551 44.999133,10.56 44.939296,10.56 c -0.19289,0 5.966928,12.637103 6.200685,12.720943 0.124121,0.04452 4.760403,3.169283 10.302848,6.943921 5.542445,3.774637 10.266579,6.870214 10.498077,6.879056 0.231497,0.0088 4.982579,-3.079613 10.557958,-6.863239 z M 78.071782,21.52 84.090435,15.84 82.605216,14.49434 81.12,13.14868 H 72 62.88 l -1.484832,1.34566 -1.484835,1.34566 5.964835,5.663021 c 3.280656,3.114662 6.012787,5.670662 6.071398,5.68 0.05861,0.0093 2.814957,-2.539021 6.125216,-5.663021 z"
     id="path55"
     inkscape:connector-curvature="0" />
</svg>
